<?xml version="1.0" standalone="no"?>
<!DOCTYPE svg PUBLIC "-//W3C//DTD SVG 20010904//EN"
 "http://www.w3.org/TR/2001/REC-SVG-20010904/DTD/svg10.dtd">
<svg version="1.0" xmlns="http://www.w3.org/2000/svg"
 width="1188.000000pt" height="1280.000000pt" viewBox="0 0 1188.000000 1280.000000"
 preserveAspectRatio="xMidYMid meet">
<metadata>
Created by potrace 1.15, written by Peter Selinger 2001-2017
</metadata>
<g transform="translate(0.000000,1280.000000) scale(0.100000,-0.100000)"
fill="#000000" stroke="none">
<path d="M5065 12733 c-429 -316 -665 -838 -601 -1328 8 -66 24 -151 34 -190
l18 -70 -111 -117 c-585 -609 -805 -1448 -595 -2262 41 -159 90 -291 169 -451
224 -457 598 -838 1044 -1066 64 -33 117 -61 117 -63 0 -2 -35 -26 -77 -52
-324 -201 -609 -475 -846 -816 -364 -522 -622 -1217 -711 -1913 -30 -237 -37
-335 -46 -705 -9 -361 -19 -537 -57 -1035 -30 -403 -23 -1099 13 -1226 3 -12
-27 -31 -123 -77 -1010 -480 -1819 -466 -2328 43 -110 109 -166 181 -251 322
-159 266 -269 623 -310 1013 -19 187 -14 560 11 740 59 429 184 793 363 1061
84 124 172 224 260 290 55 41 67 47 81 36 9 -6 96 -79 194 -160 109 -91 179
-143 182 -135 6 19 225 1192 222 1194 -4 4 -1257 -341 -1256 -346 0 -3 74 -66
164 -140 91 -74 165 -138 165 -142 0 -3 -30 -32 -66 -64 -293 -257 -540 -745
-648 -1276 -176 -873 -36 -1765 373 -2374 180 -269 404 -470 677 -608 598
-302 1369 -246 2267 165 71 33 130 58 131 57 97 -216 207 -358 381 -493 365
-284 903 -450 1710 -527 172 -16 838 -16 1015 0 866 81 1454 279 1801 609 111
106 175 190 238 313 193 375 232 813 161 1825 -37 531 -40 601 -50 970 -12
449 -33 669 -96 985 -88 438 -239 867 -429 1221 -25 45 -45 87 -45 93 0 6 250
261 555 566 538 538 556 554 577 540 301 -191 578 -221 839 -89 31 15 225 124
430 242 590 338 817 459 1133 603 71 32 123 60 115 61 -35 6 -1082 73 -1086
70 -2 -2 33 -37 78 -77 96 -87 105 -69 -90 -171 -73 -39 -240 -132 -370 -207
-315 -182 -329 -188 -413 -202 -109 -19 -281 10 -358 60 -12 8 88 112 492 517
l507 507 28 -62 c15 -34 30 -61 33 -62 7 0 504 950 499 954 -2 2 -220 -110
-484 -247 l-479 -251 62 -28 c34 -15 62 -31 62 -36 0 -4 -227 -234 -505 -512
l-504 -504 -21 50 c-41 93 -53 162 -48 270 6 122 10 133 210 480 73 127 169
299 213 382 44 83 82 151 85 151 3 0 38 -39 79 -85 40 -47 74 -84 75 -82 4 6
-71 1088 -76 1093 -2 3 -20 -30 -38 -73 -62 -143 -298 -606 -418 -817 -65
-115 -191 -338 -281 -494 -179 -311 -204 -362 -228 -460 -23 -95 -20 -255 6
-356 23 -86 83 -220 131 -291 l29 -43 -532 -530 c-348 -347 -534 -526 -539
-518 -16 30 -156 199 -236 286 -158 172 -372 349 -556 460 -47 29 -86 54 -86
56 0 2 33 19 73 39 253 123 520 323 711 534 328 362 528 784 603 1272 22 142
25 509 5 645 -77 530 -293 977 -653 1350 l-116 120 19 70 c149 559 -72 1151
-565 1517 -43 32 -82 58 -86 58 -4 0 1 -31 10 -70 71 -277 35 -598 -96 -862
-60 -122 -126 -220 -145 -214 -293 84 -460 109 -730 110 -259 0 -480 -30 -688
-94 -35 -11 -68 -17 -73 -14 -17 10 -86 118 -124 194 -139 276 -176 581 -106
875 11 44 18 81 17 82 -1 1 -42 -28 -91 -64z"/>
</g>
</svg>
